<svg width="141" height="26" viewBox="0 0 141 26" fill="none" xmlns="http://www.w3.org/2000/svg">
<path d="M9.872 23.12C7.968 23.12 6.312 22.776 4.904 22.088C3.496 21.384 2.416 20.392 1.664 19.112C0.912 17.832 0.536 16.344 0.536 14.648C0.536 12.296 0.976 10.208 1.856 8.384C2.752 6.56 3.96 5.152 5.48 4.16C7 3.152 8.688 2.648 10.544 2.648C12.272 2.648 13.584 3.096 14.48 3.992C15.376 4.872 15.824 6.04 15.824 7.496C15.824 8.472 15.648 9.256 15.296 9.848C14.96 10.44 14.472 10.736 13.832 10.736C13.384 10.736 13.032 10.632 12.776 10.424C12.52 10.216 12.392 9.912 12.392 9.512C12.392 9.368 12.424 9.104 12.488 8.72C12.584 8.24 12.632 7.856 12.632 7.568C12.632 6.112 11.856 5.384 10.304 5.384C9.248 5.384 8.24 5.728 7.28 6.416C6.32 7.104 5.544 8.12 4.952 9.464C4.36 10.792 4.064 12.376 4.064 14.216C4.064 16.136 4.6 17.624 5.672 18.68C6.744 19.72 8.328 20.24 10.424 20.24C11.464 20.24 12.512 20.112 13.568 19.856C14.64 19.584 15.824 19.176 17.12 18.632C17.36 18.536 17.56 18.488 17.72 18.488C17.976 18.488 18.168 18.584 18.296 18.776C18.424 18.968 18.488 19.216 18.488 19.52C18.488 20.496 17.96 21.216 16.904 21.68C15.768 22.176 14.584 22.544 13.352 22.784C12.136 23.008 10.976 23.12 9.872 23.12ZM19.5571 23.12C18.5651 23.12 17.7731 22.76 17.1811 22.04C16.5891 21.32 16.2931 20.376 16.2931 19.208C16.2931 17.928 16.5891 16.72 17.1811 15.584C17.7731 14.432 18.5571 13.512 19.5331 12.824C20.5251 12.12 21.5731 11.768 22.6771 11.768C23.0291 11.768 23.2611 11.84 23.3731 11.984C23.5011 12.112 23.6051 12.352 23.6851 12.704C24.0211 12.64 24.3731 12.608 24.7411 12.608C25.5251 12.608 25.9171 12.888 25.9171 13.448C25.9171 13.784 25.7971 14.584 25.5571 15.848C25.1891 17.688 25.0051 18.968 25.0051 19.688C25.0051 19.928 25.0611 20.12 25.1731 20.264C25.3011 20.408 25.4611 20.48 25.6531 20.48C25.9571 20.48 26.3251 20.288 26.7571 19.904C27.1891 19.504 27.7731 18.864 28.5091 17.984C28.7011 17.76 28.9171 17.648 29.1571 17.648C29.3651 17.648 29.5251 17.744 29.6371 17.936C29.7651 18.128 29.8291 18.392 29.8291 18.728C29.8291 19.368 29.6771 19.864 29.3731 20.216C28.7171 21.032 28.0211 21.72 27.2851 22.28C26.5491 22.84 25.8371 23.12 25.1491 23.12C24.6211 23.12 24.1331 22.944 23.6851 22.592C23.2531 22.224 22.9251 21.728 22.7011 21.104C21.8691 22.448 20.8211 23.12 19.5571 23.12ZM20.4211 20.696C20.7731 20.696 21.1091 20.488 21.4291 20.072C21.7491 19.656 21.9811 19.104 22.1251 18.416L23.0131 14C22.3411 14.016 21.7171 14.272 21.1411 14.768C20.5811 15.248 20.1331 15.888 19.7971 16.688C19.4611 17.488 19.2931 18.336 19.2931 19.232C19.2931 19.728 19.3891 20.096 19.5811 20.336C19.7891 20.576 20.0691 20.696 20.4211 20.696ZM29.5826 23.12C28.9746 23.12 28.5426 22.8 28.2866 22.16C28.0466 21.52 27.9266 20.496 27.9266 19.088C27.9266 17.008 28.2226 15.032 28.8146 13.16C28.9586 12.696 29.1906 12.36 29.5106 12.152C29.8466 11.928 30.3106 11.816 30.9026 11.816C31.2226 11.816 31.4466 11.856 31.5746 11.936C31.7026 12.016 31.7666 12.168 31.7666 12.392C31.7666 12.648 31.6466 13.224 31.4066 14.12C31.2466 14.76 31.1186 15.32 31.0226 15.8C30.9266 16.28 30.8466 16.872 30.7826 17.576C31.3106 16.2 31.9026 15.08 32.5586 14.216C33.2146 13.352 33.8546 12.736 34.4786 12.368C35.1186 12 35.7026 11.816 36.2306 11.816C37.2706 11.816 37.7906 12.336 37.7906 13.376C37.7906 13.584 37.7186 14.088 37.5746 14.888C37.4466 15.528 37.3826 15.928 37.3826 16.088C37.3826 16.648 37.5826 16.928 37.9826 16.928C38.4306 16.928 39.0066 16.576 39.7106 15.872C39.9186 15.664 40.1346 15.56 40.3586 15.56C40.5666 15.56 40.7266 15.656 40.8386 15.848C40.9666 16.024 41.0306 16.264 41.0306 16.568C41.0306 17.16 40.8706 17.624 40.5506 17.96C40.1026 18.424 39.5746 18.824 38.9666 19.16C38.3746 19.48 37.7426 19.64 37.0706 19.64C36.2226 19.64 35.5746 19.424 35.1266 18.992C34.6946 18.56 34.4786 17.976 34.4786 17.24C34.4786 17 34.5026 16.76 34.5506 16.52C34.5826 16.2 34.5986 15.984 34.5986 15.872C34.5986 15.616 34.5106 15.488 34.3346 15.488C34.0946 15.488 33.7746 15.76 33.3746 16.304C32.9906 16.832 32.6066 17.536 32.2226 18.416C31.8386 19.296 31.5266 20.224 31.2866 21.2C31.1106 21.952 30.9026 22.464 30.6626 22.736C30.4386 22.992 30.0786 23.12 29.5826 23.12ZM61.1924 17.648C61.4004 17.648 61.5604 17.744 61.6724 17.936C61.8004 18.128 61.8644 18.392 61.8644 18.728C61.8644 19.352 61.7124 19.848 61.4084 20.216C60.6404 21.144 59.8644 21.864 59.0804 22.376C58.2964 22.872 57.3684 23.12 56.2964 23.12C55.2564 23.12 54.3684 22.84 53.6324 22.28C52.9124 21.72 52.2244 20.76 51.5684 19.4C51.0404 18.312 50.6244 17.512 50.3204 17C50.0164 16.472 49.7124 16.096 49.4084 15.872C49.1204 15.648 48.7604 15.512 48.3284 15.464C48.2644 15.8 48.0804 16.856 47.7764 18.632C47.6484 19.432 47.5684 19.92 47.5364 20.096C47.3764 21.072 47.0564 21.824 46.5764 22.352C46.0964 22.864 45.3684 23.12 44.3924 23.12C43.3204 23.12 42.3684 22.808 41.5364 22.184C40.7204 21.544 40.0884 20.664 39.6404 19.544C39.1924 18.408 38.9684 17.12 38.9684 15.68C38.9684 12.992 39.4324 10.672 40.3604 8.72C41.3044 6.768 42.6164 5.28 44.2964 4.256C45.9924 3.216 47.9444 2.696 50.1524 2.696C51.6884 2.696 52.9764 2.928 54.0164 3.392C55.0564 3.856 55.8244 4.496 56.3204 5.312C56.8324 6.128 57.0884 7.048 57.0884 8.072C57.0884 8.968 56.8724 9.848 56.4404 10.712C56.0244 11.56 55.3924 12.312 54.5444 12.968C53.6964 13.624 52.6644 14.112 51.4484 14.432C52.2164 14.64 52.8084 14.976 53.2244 15.44C53.6404 15.904 54.0564 16.584 54.4724 17.48C54.9204 18.44 55.3604 19.144 55.7924 19.592C56.2404 20.04 56.7524 20.264 57.3284 20.264C57.8404 20.264 58.3284 20.096 58.7924 19.76C59.2564 19.408 59.8404 18.816 60.5444 17.984C60.7364 17.76 60.9524 17.648 61.1924 17.648ZM45.0164 15.44C44.4724 15.44 44.0964 15.312 43.8884 15.056C43.6964 14.8 43.6004 14.512 43.6004 14.192C43.6004 13.808 43.7204 13.504 43.9604 13.28C44.2164 13.056 44.5044 12.944 44.8244 12.944H45.4244C45.6804 11.376 45.9204 10.024 46.1444 8.888C46.3524 7.848 47.0244 7.328 48.1604 7.328C49.0724 7.328 49.5284 7.736 49.5284 8.552C49.5284 8.728 49.5204 8.864 49.5044 8.96L48.7844 12.944C49.6484 12.896 50.4324 12.688 51.1364 12.32C51.8564 11.952 52.4244 11.44 52.8404 10.784C53.2724 10.128 53.4884 9.384 53.4884 8.552C53.4884 7.544 53.1444 6.752 52.4564 6.176C51.7684 5.6 50.7604 5.312 49.4324 5.312C47.8644 5.312 46.4884 5.704 45.3044 6.488C44.1364 7.256 43.2244 8.408 42.5684 9.944C41.9124 11.464 41.5844 13.32 41.5844 15.512C41.5844 16.536 41.6884 17.416 41.8964 18.152C42.1044 18.888 42.3604 19.44 42.6644 19.808C42.9684 20.176 43.2564 20.36 43.5284 20.36C43.7364 20.36 43.9044 20.256 44.0324 20.048C44.1764 19.84 44.2884 19.504 44.3684 19.04L45.0164 15.44ZM70.1529 17.648C70.3609 17.648 70.5209 17.744 70.6329 17.936C70.7609 18.128 70.8249 18.392 70.8249 18.728C70.8249 19.368 70.6729 19.864 70.3689 20.216C69.7769 20.936 68.9369 21.6 67.8489 22.208C66.7769 22.816 65.6249 23.12 64.3929 23.12C62.7129 23.12 61.4089 22.664 60.4809 21.752C59.5529 20.84 59.0889 19.592 59.0889 18.008C59.0889 16.904 59.3209 15.88 59.7849 14.936C60.2489 13.976 60.8889 13.216 61.7049 12.656C62.5369 12.096 63.4729 11.816 64.5129 11.816C65.4409 11.816 66.1849 12.096 66.7449 12.656C67.3049 13.2 67.5849 13.944 67.5849 14.888C67.5849 15.992 67.1849 16.944 66.3849 17.744C65.6009 18.528 64.2649 19.152 62.3769 19.616C62.7769 20.352 63.5369 20.72 64.6569 20.72C65.3769 20.72 66.1929 20.472 67.1049 19.976C68.0329 19.464 68.8329 18.8 69.5049 17.984C69.6969 17.76 69.9129 17.648 70.1529 17.648ZM64.1049 14.168C63.5129 14.168 63.0089 14.512 62.5929 15.2C62.1929 15.888 61.9929 16.72 61.9929 17.696V17.744C62.9369 17.52 63.6809 17.184 64.2249 16.736C64.7689 16.288 65.0409 15.768 65.0409 15.176C65.0409 14.872 64.9529 14.632 64.7769 14.456C64.6169 14.264 64.3929 14.168 64.1049 14.168ZM71.7056 23.12C70.7136 23.12 69.9216 22.76 69.3296 22.04C68.7376 21.32 68.4416 20.376 68.4416 19.208C68.4416 17.928 68.7376 16.72 69.3296 15.584C69.9216 14.432 70.7056 13.512 71.6816 12.824C72.6736 12.12 73.7216 11.768 74.8256 11.768C75.1776 11.768 75.4096 11.84 75.5216 11.984C75.6496 12.112 75.7536 12.352 75.8336 12.704C76.1696 12.64 76.5216 12.608 76.8896 12.608C77.6736 12.608 78.0656 12.888 78.0656 13.448C78.0656 13.784 77.9456 14.584 77.7056 15.848C77.3376 17.688 77.1536 18.968 77.1536 19.688C77.1536 19.928 77.2096 20.12 77.3216 20.264C77.4496 20.408 77.6096 20.48 77.8016 20.48C78.1056 20.48 78.4736 20.288 78.9056 19.904C79.3376 19.504 79.9216 18.864 80.6576 17.984C80.8496 17.76 81.0656 17.648 81.3056 17.648C81.5136 17.648 81.6736 17.744 81.7856 17.936C81.9136 18.128 81.9776 18.392 81.9776 18.728C81.9776 19.368 81.8256 19.864 81.5216 20.216C80.8656 21.032 80.1696 21.72 79.4336 22.28C78.6976 22.84 77.9856 23.12 77.2976 23.12C76.7696 23.12 76.2816 22.944 75.8336 22.592C75.4016 22.224 75.0736 21.728 74.8496 21.104C74.0176 22.448 72.9696 23.12 71.7056 23.12ZM72.5696 20.696C72.9216 20.696 73.2576 20.488 73.5776 20.072C73.8976 19.656 74.1296 19.104 74.2736 18.416L75.1616 14C74.4896 14.016 73.8656 14.272 73.2896 14.768C72.7296 15.248 72.2816 15.888 71.9456 16.688C71.6096 17.488 71.4416 18.336 71.4416 19.232C71.4416 19.728 71.5376 20.096 71.7296 20.336C71.9376 20.576 72.2176 20.696 72.5696 20.696ZM89.123 17.648C89.331 17.648 89.491 17.744 89.603 17.936C89.731 18.128 89.795 18.392 89.795 18.728C89.795 19.368 89.643 19.864 89.339 20.216C88.651 21.064 87.899 21.76 87.083 22.304C86.283 22.848 85.371 23.12 84.347 23.12C82.939 23.12 81.891 22.48 81.203 21.2C80.531 19.92 80.195 18.264 80.195 16.232C80.195 14.28 80.443 12.056 80.939 9.56C81.451 7.064 82.195 4.92 83.171 3.128C84.163 1.336 85.339 0.439999 86.699 0.439999C87.467 0.439999 88.067 0.799999 88.499 1.52C88.947 2.224 89.171 3.24 89.171 4.568C89.171 6.472 88.643 8.68 87.587 11.192C86.531 13.704 85.099 16.192 83.291 18.656C83.403 19.312 83.587 19.784 83.843 20.072C84.099 20.344 84.435 20.48 84.851 20.48C85.507 20.48 86.083 20.296 86.579 19.928C87.075 19.544 87.707 18.896 88.475 17.984C88.667 17.76 88.883 17.648 89.123 17.648ZM86.171 2.816C85.803 2.816 85.387 3.48 84.923 4.808C84.459 6.136 84.051 7.784 83.699 9.752C83.347 11.72 83.155 13.608 83.123 15.416C84.259 13.544 85.163 11.672 85.835 9.8C86.507 7.912 86.843 6.192 86.843 4.64C86.843 3.424 86.619 2.816 86.171 2.816ZM106.455 8.696C106.455 10.056 106.103 11.304 105.399 12.44C104.695 13.576 103.671 14.504 102.327 15.224C100.983 15.944 99.3831 16.368 97.5271 16.496L96.4951 22.28C96.0951 24.504 95.0071 25.616 93.2311 25.616C92.2551 25.616 91.3511 25.328 90.5191 24.752C89.7031 24.176 89.0471 23.296 88.5511 22.112C88.0551 20.928 87.8071 19.472 87.8071 17.744C87.8071 14.496 88.3271 11.744 89.3671 9.488C90.4231 7.216 91.8311 5.52 93.5911 4.4C95.3671 3.264 97.3191 2.696 99.4471 2.696C100.951 2.696 102.223 2.96 103.263 3.488C104.319 4.016 105.111 4.736 105.639 5.648C106.183 6.544 106.455 7.56 106.455 8.696ZM97.9591 14.024C101.239 13.608 102.879 11.904 102.879 8.912C102.879 7.856 102.527 7 101.823 6.344C101.135 5.672 100.063 5.336 98.6071 5.336C96.9591 5.336 95.5191 5.856 94.2871 6.896C93.0711 7.936 92.1271 9.384 91.4551 11.24C90.7991 13.08 90.4711 15.184 90.4711 17.552C90.4711 18.544 90.5671 19.424 90.7591 20.192C90.9671 20.96 91.2231 21.56 91.5271 21.992C91.8471 22.408 92.1511 22.616 92.4391 22.616C92.8391 22.616 93.1431 22.064 93.3511 20.96L94.1431 16.424C93.5191 16.328 93.2471 16.288 93.3271 16.304C92.8471 16.224 92.5351 16.08 92.3911 15.872C92.2471 15.648 92.1751 15.368 92.1751 15.032C92.1751 14.68 92.2711 14.4 92.4631 14.192C92.6711 13.984 92.9511 13.88 93.3031 13.88C93.4631 13.88 93.5831 13.888 93.6631 13.904C94.0471 13.968 94.3431 14.008 94.5511 14.024C94.7591 12.776 95.0551 11.104 95.4391 9.008C95.5351 8.464 95.7511 8.08 96.0871 7.856C96.4391 7.616 96.8471 7.496 97.3111 7.496C97.8391 7.496 98.2151 7.6 98.4391 7.808C98.6791 8 98.7991 8.312 98.7991 8.744C98.7991 9 98.7831 9.208 98.7511 9.368L97.9591 14.024ZM107.442 23.12C106.834 23.12 106.402 22.8 106.146 22.16C105.906 21.52 105.786 20.496 105.786 19.088C105.786 17.008 106.082 15.032 106.674 13.16C106.818 12.696 107.05 12.36 107.37 12.152C107.706 11.928 108.17 11.816 108.762 11.816C109.082 11.816 109.306 11.856 109.434 11.936C109.562 12.016 109.626 12.168 109.626 12.392C109.626 12.648 109.506 13.224 109.266 14.12C109.106 14.76 108.978 15.32 108.882 15.8C108.786 16.28 108.706 16.872 108.642 17.576C109.17 16.2 109.762 15.08 110.418 14.216C111.074 13.352 111.714 12.736 112.338 12.368C112.978 12 113.562 11.816 114.09 11.816C115.13 11.816 115.65 12.336 115.65 13.376C115.65 13.584 115.578 14.088 115.434 14.888C115.306 15.528 115.242 15.928 115.242 16.088C115.242 16.648 115.442 16.928 115.842 16.928C116.29 16.928 116.866 16.576 117.57 15.872C117.778 15.664 117.994 15.56 118.218 15.56C118.426 15.56 118.586 15.656 118.698 15.848C118.826 16.024 118.89 16.264 118.89 16.568C118.89 17.16 118.73 17.624 118.41 17.96C117.962 18.424 117.434 18.824 116.826 19.16C116.234 19.48 115.602 19.64 114.93 19.64C114.082 19.64 113.434 19.424 112.986 18.992C112.554 18.56 112.338 17.976 112.338 17.24C112.338 17 112.362 16.76 112.41 16.52C112.442 16.2 112.458 15.984 112.458 15.872C112.458 15.616 112.37 15.488 112.194 15.488C111.954 15.488 111.634 15.76 111.234 16.304C110.85 16.832 110.466 17.536 110.082 18.416C109.698 19.296 109.386 20.224 109.146 21.2C108.97 21.952 108.762 22.464 108.522 22.736C108.298 22.992 107.938 23.12 107.442 23.12ZM119.804 10.232C119.132 10.232 118.628 10.08 118.292 9.776C117.956 9.456 117.788 9.016 117.788 8.456C117.788 7.896 118.004 7.432 118.436 7.064C118.884 6.68 119.436 6.488 120.092 6.488C120.684 6.488 121.164 6.632 121.532 6.92C121.9 7.208 122.084 7.616 122.084 8.144C122.084 8.784 121.876 9.296 121.46 9.68C121.044 10.048 120.492 10.232 119.804 10.232ZM119.612 23.12C118.572 23.12 117.812 22.752 117.332 22.016C116.868 21.28 116.636 20.304 116.636 19.088C116.636 18.368 116.724 17.448 116.9 16.328C117.092 15.192 117.332 14.136 117.62 13.16C117.764 12.648 117.956 12.296 118.196 12.104C118.436 11.912 118.82 11.816 119.348 11.816C120.164 11.816 120.572 12.088 120.572 12.632C120.572 13.032 120.42 13.96 120.116 15.416C119.732 17.176 119.54 18.368 119.54 18.992C119.54 19.472 119.604 19.84 119.732 20.096C119.86 20.352 120.076 20.48 120.38 20.48C120.668 20.48 121.028 20.28 121.46 19.88C121.892 19.48 122.468 18.848 123.188 17.984C123.38 17.76 123.596 17.648 123.836 17.648C124.044 17.648 124.204 17.744 124.316 17.936C124.444 18.128 124.508 18.392 124.508 18.728C124.508 19.368 124.356 19.864 124.052 20.216C122.468 22.152 120.988 23.12 119.612 23.12ZM127.15 23.12C125.582 23.12 124.358 22.68 123.478 21.8C122.614 20.904 122.182 19.728 122.182 18.272C122.182 16.976 122.438 15.84 122.95 14.864C123.462 13.888 124.126 13.136 124.942 12.608C125.758 12.08 126.614 11.816 127.51 11.816C128.39 11.816 129.07 12.08 129.55 12.608C130.046 13.12 130.294 13.784 130.294 14.6C130.294 15.272 130.142 15.84 129.838 16.304C129.55 16.768 129.166 17 128.686 17C128.382 17 128.134 16.928 127.942 16.784C127.766 16.64 127.678 16.44 127.678 16.184C127.678 16.072 127.694 15.944 127.726 15.8C127.758 15.656 127.782 15.552 127.798 15.488C127.878 15.248 127.918 15.024 127.918 14.816C127.918 14.608 127.862 14.448 127.75 14.336C127.654 14.224 127.51 14.168 127.318 14.168C126.95 14.168 126.606 14.336 126.286 14.672C125.966 14.992 125.71 15.432 125.518 15.992C125.326 16.552 125.23 17.168 125.23 17.84C125.23 19.696 126.038 20.624 127.654 20.624C128.31 20.624 129.014 20.408 129.766 19.976C130.534 19.528 131.286 18.864 132.022 17.984C132.214 17.76 132.43 17.648 132.67 17.648C132.878 17.648 133.038 17.744 133.15 17.936C133.278 18.128 133.342 18.392 133.342 18.728C133.342 19.336 133.19 19.832 132.886 20.216C132.134 21.144 131.23 21.864 130.174 22.376C129.134 22.872 128.126 23.12 127.15 23.12ZM139.994 18.368C140.202 18.368 140.362 18.464 140.474 18.656C140.602 18.848 140.666 19.112 140.666 19.448C140.666 20.024 140.53 20.52 140.258 20.936C139.81 21.624 139.218 22.16 138.482 22.544C137.762 22.928 136.898 23.12 135.89 23.12C134.354 23.12 133.162 22.664 132.314 21.752C131.466 20.824 131.042 19.576 131.042 18.008C131.042 16.904 131.274 15.88 131.738 14.936C132.202 13.976 132.842 13.216 133.658 12.656C134.49 12.096 135.426 11.816 136.466 11.816C137.394 11.816 138.138 12.096 138.698 12.656C139.258 13.2 139.538 13.944 139.538 14.888C139.538 15.992 139.138 16.944 138.338 17.744C137.554 18.528 136.21 19.152 134.306 19.616C134.69 20.352 135.338 20.72 136.25 20.72C136.906 20.72 137.442 20.568 137.858 20.264C138.29 19.96 138.786 19.448 139.346 18.728C139.538 18.488 139.754 18.368 139.994 18.368ZM136.058 14.168C135.466 14.168 134.962 14.512 134.546 15.2C134.146 15.888 133.946 16.72 133.946 17.696V17.744C134.89 17.52 135.634 17.184 136.178 16.736C136.722 16.288 136.994 15.768 136.994 15.176C136.994 14.872 136.906 14.632 136.73 14.456C136.57 14.264 136.346 14.168 136.058 14.168Z" fill="black"/>
</svg>
